# AST/ASF file generated using VICON BodyLanguage
# -----------------------------------------------
:version 1.10
:name VICON
:units
  mass 1.0
  length 0.45
  angle deg
:documentation
   .ast/.asf automatically generated from VICON data using
   VICON BodyBuilder and BodyLanguage model FoxedUp or BRILLIANT.MOD
:root
   order TX TY TZ RX RY RZ
   axis XYZ
   position 0 0 0  
   orientation 0 0 0 
:bonedata
  begin
     id 1 
     name lhipjoint
     direction 0.610259 -0.730986 0.305356 
     length 2.50941 
     axis 0 0 0  XYZ
  end
  begin
     id 2 
     name lfemur
     direction 0.34202 -0.939693 0  
     length 7.48822  
     axis 0 0 20  XYZ
    dof rx ry rz
    limits (-160.0 20.0)
           (-70.0 70.0)
           (-60.0 70.0)
  end
  begin
     id 3 
     name ltibia
     direction 0.34202 -0.939693 0   
     length 7.60141   
     axis 0 0 20   XYZ
    dof rx
    limits (-10.0 170.0)
  end
  begin
     id 4 
     name lfoot
     direction 0.0673488 -0.185039 0.980421   
     length 2.04049   
     axis -90 7.62852e-016 20   XYZ
    dof rx rz
    limits (-45.0 90.0)
           (-70.0 20.0)
  end
  begin
     id 5 
     name ltoes
     direction 1.5356e-011 -4.21729e-011 1   
     length 1.02897   
     axis -90 7.62852e-016 20   XYZ
    dof rx
    limits (-90.0 20.0)
  end
  begin
     id 6 
     name rhipjoint
     direction -0.57612 -0.754205 0.315056   
     length 2.43216  
     axis 0 0 0  XYZ 
  end
  begin
     id 7 
     name rfemur
     direction -0.34202 -0.939693 0   
     length 7.42799   
     axis 0 0 -20   XYZ
    dof rx ry rz
    limits (-160.0 20.0)
           (-70.0 70.0)
           (-70.0 60.0)
  end
  begin
     id 8 
     name rtibia
     direction -0.34202 -0.939693 0   
     length 7.69484   
     axis 0 0 -20   XYZ
    dof rx
    limits (-10.0 170.0)
 end
 begin
     id 9 
     name rfoot
     direction -0.111837 -0.30727 0.945028   
     length 2.15769  
     axis -90 -7.62852e-016 -20   XYZ
    dof rx rz
    limits (-45.0 90.0)
           (-20.0 70.0)
  end
  begin
     id 10 
     name rtoes
     direction -1.53539e-011 -4.21878e-011 1   
     length 1.07391   
     axis -90 -7.62852e-016 -20   XYZ
    dof rx
    limits (-90.0 20.0)
  end
  begin
     id 11 
     name lowerback
     direction 0.00552624 0.990109 -0.140195   
     length 2.12403   
     axis 0 0 0   XYZ
    dof rx ry rz
    limits (-20.0 45.0)
           (-30.0 30.0)
           (-30.0 30.0)
  end
  begin
     id 12 
     name upperback
     direction 0.00361898 0.999976 -0.00584723   
     length 2.13232   
     axis 0 0 0   XYZ
    dof rx ry rz
    limits (-20.0 45.0)
           (-30.0 30.0)
           (-30.0 30.0)
  end
  begin
     id 13 
     name thorax
     direction -0.000331275 0.998253 0.0590847   
     length 2.17688   
     axis 0 0 0   XYZ
    dof rx ry rz
    limits (-20.0 45.0)
           (-30.0 30.0)
           (-30.0 30.0)
  end
  begin
     id 14 
     name lowerneck
     direction -0.0561561 0.979832 0.19177   
     length 1.64159   
     axis 0 0 0   XYZ
    dof rx ry rz
    limits (-20.0 45.0)
           (-30.0 30.0)
           (-30.0 30.0)
  end
  begin
     id 15 
     name upperneck
     direction 0.0827153 0.979385 -0.184293   
     length 1.68939   
     axis 0 0 0   XYZ
    dof rx ry rz
    limits (-20.0 45.0)
           (-30.0 30.0)
           (-30.0 30.0)
  end
  begin
     id 16
     name head
     direction 0.0278583 0.995936 -0.0856488  
     length 1.70207  
     axis 0 0 0   XYZ
    dof rx ry rz
    limits (-20.0 45.0)
           (-30.0 30.0)
           (-30.0 30.0)
  end
  begin
     id 17 
     name lclavicle
     direction 0.950993 0.301131 -0.0702275  
     length 3.41652  
     axis 0 0 0   XYZ
    dof ry rz
    limits (-20.0 10.0)
           (0.0 20.0)
  end
  begin
     id 18 
     name lhumerus
     direction 1 -4.48981e-011 -3.9662e-029   
     length 5.32955   
     axis 180 -30 -90   XYZ
    dof rx ry rz
    limits (-60.0 90.0)
           (-90.0 90.0)
           (-90.0 90.0)
  end
  begin
     id 19
     name lradius
     direction 1 -4.48925e-011 -9.0549e-027   
     length 3.69232   
     axis 180 -30 -90   XYZ
    dof rx
    limits (-10.0 170.0)
  end
  begin
     id 20
     name lwrist
     direction 1 -4.49007e-011 -1.49005e-026   
     length 1.84616   
     axis 9.0955e-015 90 90   XYZ
    dof ry
    limits (-180.0 0.0)
 end
  begin
     id 21 
     name lhand
     direction 1 -4.49016e-011 -2.98023e-026   
     length 0.536598   
     axis 1.90115e-014 90 90   XYZ
    dof rx rz
    limits (-90.0 90.0)
           (-45.0 45.0)
  end
  begin
     id 22 
     name lfingers
     direction 1 -4.48924e-011 -5.9578e-026   
     length 0.432619   
     axis 3.80223e-014 90 90   XYZ
    dof rx
    limits (0.0 90.0)
  end
  begin
     id 23
     name lthumb
     direction 0.707107 -6.34947e-011 0.707107   
     length 0.621157   
     axis -90 45 -3.84942e-014   XYZ
    dof rx rz
    limits (-45.0 45.0)
           (-45.0 45.0)
  end
  begin
     id 24 
     name rclavicle
     direction -0.955495 0.276497 -0.102848   
     length 3.36357  
     axis 0 0 0   XYZ 
    dof ry rz
    limits (-10.0 20.0)
           (-20.0 0.0)
  end
  begin
     id 25 
     name rhumerus
     direction -1 -4.48961e-011 3.30983e-027  
     length 5.23431   
     axis 180 30 90   XYZ
    dof rx ry rz
    limits (-90.0 60.0)
           (-90.0 90.0)
           (-90.0 90.0)
  end
  begin
     id 26 
     name rradius
     direction -1 -4.48965e-011 -6.63263e-027   
     length 3.55301   
     axis 180 30 90   XYZ
    dof rx
    limits (-10.0 170.0)
  end
  begin
     id 27 
     name rwrist
     direction -1 -4.48942e-011 -1.48958e-026   
     length 1.77651   
     axis 9.0955e-015 -90 -90   XYZ
    dof ry
    limits (-180.0 0.0)
  end
  begin
     id 28
     name rhand
     direction -1 -4.48977e-011 -2.97966e-026   
     length 0.772522   
     axis 1.90115e-014 -90 -90   XYZ
    dof rx rz
    limits (-90.0 90.0)
           (-45.0 45.0)
  end
  begin
     id 29
     name rfingers
     direction -1 -4.49135e-011 -5.96389e-026   
     length 0.622827   
     axis 3.80223e-014 -90 -90   XYZ
    dof rx
    limits (0.0 90.0)
  end
  begin
     id 30
     name rthumb
     direction -0.707107 -6.34969e-011 0.707107   
     length 0.894259   
     axis -90 -45 3.84942e-014   XYZ
    dof rx rz
    limits (-45.0 45.0)
           (-45.0 45.0)
  end
:hierarchy
  begin
    root lhipjoint rhipjoint lowerback
    lhipjoint lfemur
    lfemur ltibia
    ltibia lfoot
    lfoot ltoes
    rhipjoint rfemur
    rfemur rtibia
    rtibia rfoot
    rfoot rtoes
    lowerback upperback
    upperback thorax
    thorax lowerneck lclavicle rclavicle
    lowerneck upperneck
    upperneck head
    lclavicle lhumerus
    lhumerus lradius
    lradius lwrist
    lwrist lhand lthumb
    lhand lfingers
    rclavicle rhumerus
    rhumerus rradius
    rradius rwrist
    rwrist rhand rthumb
    rhand rfingers
  end

#!OML:ASF F:\VICON\USERDATA\INSTALL\rory3\rory3.ASF
:FULLY-SPECIFIED
:DEGREES
35
root 5.34654 17.8791 -8.01123 -3.09445 -44.4931 1.35399
lowerback 10.6574 1.14022 2.93057
upperback 0.17659 1.90241 0.643115
thorax -5.72382 0.857869 -1.26841
lowerneck -19.572 -3.97894 -12.5892
upperneck 33.2805 -3.70318 5.7256
head 15.337 -2.49478 3.87722
rclavicle -7.15128e-014 -7.15625e-015
rhumerus -40.8346 -14.8969 -77.0186
rradius 31.0154
rwrist 5.57852
rhand -12.8274 8.19917
rfingers 7.12502
rthumb 13.2595 -21.3591
lclavicle -7.15128e-014 -7.15625e-015
lhumerus -34.5565 6.098 84.8884
lradius 26.6573
lwrist -2.47398
lhand -16.2795 27.9313
lfingers 7.12502
lthumb 9.93054 57.677
rfemur 1.2608 -2.23513 25.3136
rtibia 21.8357
rfoot -18.6483 4.34873
rtoes 11.6656
lfemur -19.6753 3.86831 -17.6741
ltibia 35.0198
lfoot -5.44097 -1.40588
ltoes -16.452
36
root 5.32788 17.8788 -7.98652 -3.02218 -44.5693 1.26336
lowerback 10.6588 1.15862 3.07354
upperback 0.217625 1.9402 0.594319
thorax -5.67343 0.872996 -1.4049
lowerneck -19.5212 -3.95532 -12.4278
upperneck 33.2984 -3.69199 5.60294
head 15.3245 -2.48785 3.79892
rclavicle -6.4282e-014 1.35174e-014
rhumerus -40.779 -15.0257 -77.1009
rradius 31.0369
rwrist 5.39649
rhand -12.81 8.10101
rfingers 7.12502
rthumb 13.2764 -21.4561
lclavicle -6.4282e-014 1.35174e-014
lhumerus -34.6196 6.3486 84.6639
lradius 26.7164
lwrist -2.74027
lhand -15.7567 27.7594
lfingers 7.12502
lthumb 10.4348 57.4804
rfemur 1.46167 -2.29235 25.3539
rtibia 21.6256
rfoot -18.674 4.49646
rtoes 12.1362
lfemur -19.9167 3.79866 -17.6199
ltibia 34.43
lfoot -5.49774 -1.33913
ltoes -15.5789
37
root 5.3098 17.8781 -7.9646 -2.93268 -44.6492 1.17276
lowerback 10.7174 1.12243 3.13887
upperback 0.228679 1.90248 0.606449
thorax -5.69479 0.852369 -1.42464
lowerneck -19.5002 -3.90812 -12.365
upperneck 33.2958 -3.61416 5.50977
head 15.3049 -2.46047 3.76237
rclavicle 2.77553e-014 6.75868e-015
rhumerus -40.7389 -14.8492 -77.2118
rradius 31.0736
rwrist 5.36172
rhand -12.8892 7.74652
rfingers 7.12502
rthumb 13.2 -21.8156
lclavicle 2.77553e-014 6.75868e-015
lhumerus -34.6913 6.67439 84.4919
lradius 26.7428
lwrist -2.92601
lhand -15.648 27.7472
lfingers 7.12502
lthumb 10.5397 57.4629
rfemur 1.63772 -2.25829 25.4175
rtibia 21.4056
rfoot -18.6617 4.49043
rtoes 12.1199
lfemur -20.1928 3.85761 -17.5829
ltibia 33.8469
lfoot -5.65482 -1.49979
ltoes -15.1859
38
root 5.29191 17.8774 -7.94421 -2.77322 -44.7444 0.978189
lowerback 10.7927 1.0868 3.18045
upperback 0.246186 1.86751 0.698339
thorax -5.72213 0.834577 -1.34821
lowerneck -19.4765 -3.84938 -12.4108
upperneck 33.2871 -3.50915 5.49952
head 15.2836 -2.42378 3.78544
rclavicle -3.78436e-014 4.77083e-015
rhumerus -40.6508 -14.6578 -77.2452
rradius 31.0622
rwrist 5.40697
rhand -12.9587 7.41955
rfingers 7.12502
rthumb 13.133 -22.1469
lclavicle -3.78436e-014 4.77083e-015
lhumerus -34.7337 6.93036 84.4029
lradius 26.7314
lwrist -3.29256
lhand -15.9428 27.4737
lfingers 7.12502
lthumb 10.2554 57.2037
rfemur 1.82277 -2.1759 25.5763
rtibia 21.1772
rfoot -18.6487 4.4479
rtoes 11.8383
lfemur -20.4835 3.96311 -17.4526
ltibia 33.2635
lfoot -5.55114 -1.48744
ltoes -14.3654
39
root 5.27183 17.8767 -7.92044 -2.6743 -44.84 0.817139
lowerback 10.8928 1.08649 3.2118
upperback 0.246512 1.87851 0.764872
thorax -5.77889 0.838691 -1.3004
lowerneck -19.393 -3.80885 -12.4053
upperneck 33.3166 -3.44967 5.45443
head 15.2701 -2.40706 3.77717
rclavicle -3.76448e-014 -2.22639e-014
rhumerus -40.6377 -14.6996 -77.173
rradius 31.0156
rwrist 5.49119
rhand -12.8703 7.52541
rfingers 7.12502
rthumb 13.2182 -22.0355
lclavicle -3.76448e-014 -2.22639e-014
lhumerus -34.8111 7.11861 84.2645
lradius 26.7431
lwrist -3.8228
lhand -16.2312 27.1058
lfingers 7.12502
lthumb 9.97712 56.8493
rfemur 2.06701 -2.19362 25.6818
rtibia 20.9262
rfoot -18.6189 4.51494
rtoes 11.7035
lfemur -20.7232 4.04382 -17.3341
ltibia 32.6562
lfoot -5.31183 -1.42252
ltoes -12.2766
40
root 5.24928 17.8764 -7.8939 -2.63127 -44.9374 0.758079
lowerback 10.9529 1.09413 3.23595
upperback 0.246258 1.89348 0.755268
thorax -5.81116 0.844559 -1.3279
lowerneck -19.3463 -3.77391 -12.2312
upperneck 33.3902 -3.40973 5.27895
head 15.2808 -2.39636 3.68102
rclavicle -9.73548e-014 -2.0276e-014
rhumerus -40.6677 -14.8751 -77.1151
rradius 30.9968
rwrist 5.6191
rhand -13.0286 7.15634
rfingers 7.12502
rthumb 13.0656 -22.4144
lclavicle -9.73548e-014 -2.0276e-014
lhumerus -34.9729 6.82699 84.3218
lradius 26.9393
lwrist -3.34
lhand -16.1378 27.5235
lfingers 7.12502
lthumb 10.0672 57.2627
rfemur 2.30571 -2.2719 25.6884
rtibia 20.6806
rfoot -18.5637 4.70398
rtoes 12.0562
lfemur -20.9547 4.1513 -17.3102
ltibia 32.0121
lfoot -5.09713 -1.48059
ltoes -10.6663
41
root 5.22531 17.8796 -7.86868 -2.57403 -44.9935 0.753547
lowerback 10.9127 1.08381 3.22852
upperback 0.277944 1.87492 0.734967
thorax -5.75549 0.836669 -1.34063
lowerneck -19.3812 -3.73886 -12.092
upperneck 33.4368 -3.34531 5.11476
head 15.2963 -2.37572 3.59956
rclavicle 6.80092e-014 -5.96354e-015
rhumerus -40.6061 -14.9432 -77.1288
rradius 30.9698
rwrist 5.7178
rhand -13.1831 6.70457
rfingers 7.12502
rthumb 12.9167 -22.8757
lclavicle 6.80092e-014 -5.96354e-015
lhumerus -35.0536 6.41334 84.546
lradius 27.1046
lwrist -2.16558
lhand -15.8885 28.2057
lfingers 7.12502
lthumb 10.3078 57.9331
rfemur 2.46956 -2.24433 25.6897
rtibia 20.486
rfoot -18.5443 4.73898
rtoes 12.6723
lfemur -21.195 4.10664 -17.3077
ltibia 31.3448
lfoot -4.83819 -1.45248
ltoes -9.1033
